<svg width="100" height="69" viewBox="0 0 100 69" fill="none" xmlns="http://www.w3.org/2000/svg">
<path d="M67.2002 66.9081C67.9442 66.9081 68.6762 66.7041 69.3962 66.2961C70.1402 65.8881 70.8002 65.3001 71.3762 64.5321C71.9522 63.7401 72.4202 62.7801 72.7802 61.6521C73.1402 60.5241 73.3202 59.2401 73.3202 57.8001V38.6841H80.7722V57.8001C80.7722 59.4321 80.4122 60.8961 79.6922 62.1921C78.9722 63.4881 77.9882 64.5921 76.7402 65.5041C75.5162 66.3921 74.0762 67.0641 72.4202 67.5201C70.7882 68.0001 69.0482 68.2401 67.2002 68.2401V66.9081ZM88.8002 38.6841H96.7562V51.5361H99.8882V53.5521H96.7562V68.9241H88.8002V38.6841ZM80.4122 64.5321C80.4122 63.4281 80.7482 62.5401 81.4202 61.8681C82.1162 61.1721 83.0162 60.8241 84.1202 60.8241C85.2242 60.8241 86.1122 61.1721 86.7842 61.8681C87.4802 62.5401 87.8282 63.4281 87.8282 64.5321C87.8282 65.6361 87.4802 66.5241 86.7842 67.1961C86.1122 67.8921 85.2242 68.2401 84.1202 68.2401C83.0162 68.2401 82.1162 67.8921 81.4202 67.1961C80.7482 66.5241 80.4122 65.6361 80.4122 64.5321Z" fill="black"/>
<path d="M49.9802 67.2681C50.6522 67.2681 51.3242 67.2441 51.9962 67.1961C52.6682 67.1481 53.3042 67.0641 53.9042 66.9441C54.5042 66.8481 55.0442 66.7161 55.5242 66.5481C56.0282 66.3801 56.4482 66.1881 56.7842 65.9721V38.6841H64.7402V68.9241H56.7842V67.6281C56.0882 68.0601 55.0922 68.3841 53.7962 68.6001C52.5002 68.8161 51.1442 68.9241 49.7282 68.9241H38.8922C37.4762 68.9241 36.3482 68.5041 35.5082 67.6641C34.6922 66.8481 34.2842 65.7441 34.2842 64.3521C34.2842 62.9601 34.6922 61.8561 35.5082 61.0401C36.3482 60.2001 37.4762 59.7801 38.8922 59.7801H47.2802V54.4161H38.6042C37.3082 54.4161 36.2642 54.0201 35.4722 53.2281C34.6802 52.4361 34.2842 51.3801 34.2842 50.0601C34.2842 48.7401 34.6802 47.6961 35.4722 46.9281C36.2642 46.1361 37.3082 45.7401 38.6042 45.7401H47.2802V40.3401H34.9322V38.6841H50.9162C52.2122 38.6841 53.2562 39.0801 54.0482 39.8721C54.8402 40.6641 55.2362 41.7201 55.2362 43.0401C55.2362 44.3601 54.8402 45.4161 54.0482 46.2081C53.2562 47.0001 52.2122 47.3961 50.9162 47.3961H42.2402V52.7601H50.9162C52.2122 52.7601 53.2562 53.1561 54.0482 53.9481C54.8402 54.7161 55.2362 55.7601 55.2362 57.0801C55.2362 58.4001 54.8402 59.4561 54.0482 60.2481C53.2562 61.0401 52.2122 61.4361 50.9162 61.4361H42.2402V67.2681H49.9802Z" fill="black"/>
<path d="M0 67.232H4.968V57.764C3.24 56.828 1.992 55.616 1.224 54.128C0.48 52.64 0.108 50.948 0.108 49.052C0.108 47.444 0.384 45.98 0.936 44.66C1.488 43.316 2.376 42.176 3.6 41.24C4.824 40.28 6.408 39.548 8.352 39.044C10.32 38.516 12.708 38.252 15.516 38.252C18.324 38.252 20.7 38.516 22.644 39.044C24.612 39.548 26.208 40.28 27.432 41.24C28.656 42.176 29.544 43.316 30.096 44.66C30.648 45.98 30.924 47.444 30.924 49.052C30.924 50.948 30.54 52.64 29.772 54.128C29.028 55.616 27.792 56.828 26.064 57.764V66.548C26.064 67.004 26.28 67.232 26.712 67.232H31.104V68.888H0V67.232ZM15.516 58.196C16.764 58.196 17.844 57.98 18.756 57.548C19.692 57.116 20.472 56.504 21.096 55.712C21.72 54.92 22.188 53.96 22.5 52.832C22.812 51.704 22.968 50.444 22.968 49.052C22.968 47.684 22.812 46.436 22.5 45.308C22.188 44.18 21.72 43.22 21.096 42.428C20.472 41.612 19.692 40.988 18.756 40.556C17.844 40.124 16.764 39.908 15.516 39.908C14.268 39.908 13.176 40.124 12.24 40.556C11.328 40.988 10.56 41.612 9.936 42.428C9.312 43.22 8.844 44.18 8.532 45.308C8.22 46.436 8.064 47.684 8.064 49.052C8.064 50.444 8.22 51.704 8.532 52.832C8.844 53.96 9.312 54.92 9.936 55.712C10.56 56.504 11.328 57.116 12.24 57.548C13.176 57.98 14.268 58.196 15.516 58.196ZM18.108 67.232V59.78C17.7 59.828 17.28 59.852 16.848 59.852C16.416 59.852 15.972 59.852 15.516 59.852C15.06 59.852 14.616 59.852 14.184 59.852C13.752 59.852 13.332 59.828 12.924 59.78V67.232H18.108Z" fill="black"/>
<path d="M67.5996 18.576C68.3436 18.576 69.1236 18.372 69.9396 17.964C70.7556 17.556 71.4996 16.968 72.1716 16.2C72.8676 15.408 73.4316 14.448 73.8636 13.32C74.3196 12.192 74.5476 10.908 74.5476 9.468V4.644H68.1036V2.988H74.5476V0H82.4676V2.988H88.9836V4.644H81.9996V9.468C81.9996 11.1 81.5916 12.564 80.7756 13.86C79.9836 15.156 78.9156 16.26 77.5716 17.172C76.2276 18.06 74.6916 18.744 72.9636 19.224C71.2356 19.68 69.4476 19.908 67.5996 19.908V18.576ZM74.0796 23.76H67.9596V22.104H83.9436C85.1196 22.104 86.3316 22.032 87.5796 21.888C88.8276 21.744 89.8956 21.492 90.7836 21.132V0.648H98.7396V30.888H90.7836V22.788C89.8476 23.148 88.7436 23.4 87.4716 23.544C86.1996 23.688 84.9516 23.76 83.7276 23.76H82.3596V30.888H74.0796V23.76ZM82.1436 16.2C82.1436 15.096 82.4796 14.208 83.1516 13.536C83.8476 12.84 84.7476 12.492 85.8516 12.492C86.9556 12.492 87.8436 12.84 88.5156 13.536C89.1876 14.208 89.5236 15.096 89.5236 16.2C89.5236 17.304 89.1876 18.204 88.5156 18.9C87.8436 19.572 86.9556 19.908 85.8516 19.908C84.7476 19.908 83.8476 19.572 83.1516 18.9C82.4796 18.204 82.1436 17.304 82.1436 16.2Z" fill="black"/>
<path d="M33.208 28.9081C33.952 28.9081 34.684 28.7041 35.404 28.2961C36.148 27.8881 36.808 27.3001 37.384 26.5321C37.96 25.7401 38.428 24.7801 38.788 23.6521C39.148 22.5241 39.328 21.2401 39.328 19.8001V2.34008H33.388V0.684082H53.044V2.34008H46.78V19.8001C46.78 21.4321 46.42 22.8961 45.7 24.1921C44.98 25.4881 43.996 26.5921 42.748 27.5041C41.524 28.3921 40.084 29.0641 38.428 29.5201C36.796 30.0001 35.056 30.2401 33.208 30.2401V28.9081ZM54.808 0.684082H62.764V13.5361H65.896V15.5521H62.764V30.9241H54.808V0.684082ZM46.42 26.5321C46.42 25.4281 46.756 24.5401 47.428 23.8681C48.124 23.1721 49.024 22.8241 50.128 22.8241C51.232 22.8241 52.12 23.1721 52.792 23.8681C53.488 24.5401 53.836 25.4281 53.836 26.5321C53.836 27.6361 53.488 28.5241 52.792 29.1961C52.12 29.8921 51.232 30.2401 50.128 30.2401C49.024 30.2401 48.124 29.8921 47.428 29.1961C46.756 28.5241 46.42 27.6361 46.42 26.5321Z" fill="black"/>
<path d="M21.6675 16.7449C21.5596 16.7449 21.4511 16.7477 21.3424 16.7531C20.1667 14.8455 18.1083 13.6841 15.8341 13.6841C13.5599 13.6841 11.5014 14.8455 10.326 16.7531C10.2173 16.7476 10.1087 16.7449 10.0008 16.7449C6.42966 16.7449 3.52441 19.6502 3.52441 23.2214C3.52441 26.2091 5.57441 28.7811 8.40659 29.4978V38.6998C8.40659 39.188 8.80217 39.5836 9.29036 39.5836H22.3779C22.8661 39.5836 23.2617 39.188 23.2617 38.6998V29.4982C26.0934 28.7813 28.1439 26.2086 28.1439 23.2214C28.1439 19.6502 25.2386 16.7449 21.6675 16.7449ZM21.4942 37.8159H10.1741V36.1502H12.6061H15.8343H19.0625H21.4944V37.8159H21.4942ZM22.2667 27.8907C21.8252 27.9468 21.4942 28.3224 21.4942 28.7674V34.6771H19.7987V29.1649C19.7987 28.7581 19.469 28.4284 19.0623 28.4284C18.6555 28.4284 18.3258 28.7581 18.3258 29.1649V34.6771H16.5705V29.1649C16.5705 28.7581 16.2408 28.4284 15.834 28.4284C15.4273 28.4284 15.0976 28.7581 15.0976 29.1649V34.6771H13.3426V29.1649C13.3426 28.7581 13.0129 28.4284 12.6061 28.4284C12.1994 28.4284 11.8697 28.7581 11.8697 29.1649V34.6771H10.1741V28.8531C10.1751 28.8431 10.1759 28.8331 10.1766 28.8231C10.2058 28.3574 9.86811 27.9492 9.40513 27.8907C7.06032 27.595 5.29207 25.5875 5.29207 23.2214C5.29207 20.6249 7.40452 18.5124 10.0009 18.5124C10.2282 18.5124 10.4596 18.5294 10.6893 18.5632C11.0689 18.6188 11.4404 18.4237 11.61 18.0798C12.4099 16.4586 14.0288 15.4516 15.8341 15.4516C17.6394 15.4516 19.2582 16.4588 20.0588 18.08C20.2284 18.4237 20.5993 18.6186 20.9796 18.5632C21.2086 18.5295 21.4401 18.5124 21.6675 18.5124C24.2639 18.5124 26.3763 20.6249 26.3763 23.2214C26.3763 25.5861 24.6096 27.5934 22.2667 27.8907Z" fill="black"/>
</svg>
