<svg width="147" height="82" viewBox="0 0 147 82" fill="none" xmlns="http://www.w3.org/2000/svg">
<path d="M146.524 41C146.524 63.6437 128.168 82 105.524 82C82.8807 82 64.5244 63.6437 64.5244 41C64.5244 18.3563 82.8807 0 105.524 0C128.168 0 146.524 18.3563 146.524 41Z" fill="#85FF7B"/>
<path d="M67.2002 77.224C67.9442 77.224 68.6762 77.02 69.3962 76.612C70.1402 76.204 70.8002 75.616 71.3762 74.848C71.9522 74.056 72.4202 73.096 72.7802 71.968C73.1402 70.84 73.3202 69.556 73.3202 68.116V49H80.7722V68.116C80.7722 69.748 80.4122 71.212 79.6922 72.508C78.9722 73.804 77.9882 74.908 76.7402 75.82C75.5162 76.708 74.0762 77.38 72.4202 77.836C70.7882 78.316 69.0482 78.556 67.2002 78.556V77.224ZM88.8002 49H96.7562V61.852H99.8882V63.868H96.7562V79.24H88.8002V49ZM80.4122 74.848C80.4122 73.744 80.7482 72.856 81.4202 72.184C82.1162 71.488 83.0162 71.14 84.1202 71.14C85.2242 71.14 86.1122 71.488 86.7842 72.184C87.4802 72.856 87.8282 73.744 87.8282 74.848C87.8282 75.952 87.4802 76.84 86.7842 77.512C86.1122 78.208 85.2242 78.556 84.1202 78.556C83.0162 78.556 82.1162 78.208 81.4202 77.512C80.7482 76.84 80.4122 75.952 80.4122 74.848Z" fill="white"/>
<path d="M49.9802 77.584C50.6522 77.584 51.3242 77.56 51.9962 77.512C52.6682 77.464 53.3042 77.38 53.9042 77.26C54.5042 77.164 55.0442 77.032 55.5242 76.864C56.0282 76.696 56.4482 76.504 56.7842 76.288V49H64.7402V79.24H56.7842V77.944C56.0882 78.376 55.0922 78.7 53.7962 78.916C52.5002 79.132 51.1442 79.24 49.7282 79.24H38.8922C37.4762 79.24 36.3482 78.82 35.5082 77.98C34.6922 77.164 34.2842 76.06 34.2842 74.668C34.2842 73.276 34.6922 72.172 35.5082 71.356C36.3482 70.516 37.4762 70.096 38.8922 70.096H47.2802V64.732H38.6042C37.3082 64.732 36.2642 64.336 35.4722 63.544C34.6802 62.752 34.2842 61.696 34.2842 60.376C34.2842 59.056 34.6802 58.012 35.4722 57.244C36.2642 56.452 37.3082 56.056 38.6042 56.056H47.2802V50.656H34.9322V49H50.9162C52.2122 49 53.2562 49.396 54.0482 50.188C54.8402 50.98 55.2362 52.036 55.2362 53.356C55.2362 54.676 54.8402 55.732 54.0482 56.524C53.2562 57.316 52.2122 57.712 50.9162 57.712H42.2402V63.076H50.9162C52.2122 63.076 53.2562 63.472 54.0482 64.264C54.8402 65.032 55.2362 66.076 55.2362 67.396C55.2362 68.716 54.8402 69.772 54.0482 70.564C53.2562 71.356 52.2122 71.752 50.9162 71.752H42.2402V77.584H49.9802Z" fill="white"/>
<path d="M0 77.5479H4.968V68.0799C3.24 67.1439 1.992 65.9319 1.224 64.4439C0.48 62.9559 0.108 61.2639 0.108 59.3679C0.108 57.7599 0.384 56.2959 0.936 54.9759C1.488 53.6319 2.376 52.4919 3.6 51.5559C4.824 50.5959 6.408 49.8639 8.352 49.3599C10.32 48.8319 12.708 48.5679 15.516 48.5679C18.324 48.5679 20.7 48.8319 22.644 49.3599C24.612 49.8639 26.208 50.5959 27.432 51.5559C28.656 52.4919 29.544 53.6319 30.096 54.9759C30.648 56.2959 30.924 57.7599 30.924 59.3679C30.924 61.2639 30.54 62.9559 29.772 64.4439C29.028 65.9319 27.792 67.1439 26.064 68.0799V76.8639C26.064 77.3199 26.28 77.5479 26.712 77.5479H31.104V79.2039H0V77.5479ZM15.516 68.5119C16.764 68.5119 17.844 68.2959 18.756 67.8639C19.692 67.4319 20.472 66.8199 21.096 66.0279C21.72 65.2359 22.188 64.2759 22.5 63.1479C22.812 62.0199 22.968 60.7599 22.968 59.3679C22.968 57.9999 22.812 56.7519 22.5 55.6239C22.188 54.4959 21.72 53.5359 21.096 52.7439C20.472 51.9279 19.692 51.3039 18.756 50.8719C17.844 50.4399 16.764 50.2239 15.516 50.2239C14.268 50.2239 13.176 50.4399 12.24 50.8719C11.328 51.3039 10.56 51.9279 9.936 52.7439C9.312 53.5359 8.844 54.4959 8.532 55.6239C8.22 56.7519 8.064 57.9999 8.064 59.3679C8.064 60.7599 8.22 62.0199 8.532 63.1479C8.844 64.2759 9.312 65.2359 9.936 66.0279C10.56 66.8199 11.328 67.4319 12.24 67.8639C13.176 68.2959 14.268 68.5119 15.516 68.5119ZM18.108 77.5479V70.0959C17.7 70.1439 17.28 70.1679 16.848 70.1679C16.416 70.1679 15.972 70.1679 15.516 70.1679C15.06 70.1679 14.616 70.1679 14.184 70.1679C13.752 70.1679 13.332 70.1439 12.924 70.0959V77.5479H18.108Z" fill="white"/>
<path d="M67.5996 28.8919C68.3436 28.8919 69.1236 28.6879 69.9396 28.2799C70.7556 27.8719 71.4996 27.2839 72.1716 26.5159C72.8676 25.7239 73.4316 24.7639 73.8636 23.6359C74.3196 22.5079 74.5476 21.2239 74.5476 19.7839V14.9599H68.1036V13.3039H74.5476V10.3159H82.4676V13.3039H88.9836V14.9599H81.9996V19.7839C81.9996 21.4159 81.5916 22.8799 80.7756 24.1759C79.9836 25.4719 78.9156 26.5759 77.5716 27.4879C76.2276 28.3759 74.6916 29.0599 72.9636 29.5399C71.2356 29.9959 69.4476 30.2239 67.5996 30.2239V28.8919ZM74.0796 34.0759H67.9596V32.4199H83.9436C85.1196 32.4199 86.3316 32.3479 87.5796 32.2039C88.8276 32.0599 89.8956 31.8079 90.7836 31.4479V10.9639H98.7396V41.2039H90.7836V33.1039C89.8476 33.4639 88.7436 33.7159 87.4716 33.8599C86.1996 34.0039 84.9516 34.0759 83.7276 34.0759H82.3596V41.2039H74.0796V34.0759ZM82.1436 26.5159C82.1436 25.4119 82.4796 24.5239 83.1516 23.8519C83.8476 23.1559 84.7476 22.8079 85.8516 22.8079C86.9556 22.8079 87.8436 23.1559 88.5156 23.8519C89.1876 24.5239 89.5236 25.4119 89.5236 26.5159C89.5236 27.6199 89.1876 28.5199 88.5156 29.2159C87.8436 29.8879 86.9556 30.2239 85.8516 30.2239C84.7476 30.2239 83.8476 29.8879 83.1516 29.2159C82.4796 28.5199 82.1436 27.6199 82.1436 26.5159Z" fill="white"/>
<path d="M33.208 39.224C33.952 39.224 34.684 39.02 35.404 38.612C36.148 38.204 36.808 37.616 37.384 36.848C37.96 36.056 38.428 35.096 38.788 33.968C39.148 32.84 39.328 31.556 39.328 30.116V12.656H33.388V11H53.044V12.656H46.78V30.116C46.78 31.748 46.42 33.212 45.7 34.508C44.98 35.804 43.996 36.908 42.748 37.82C41.524 38.708 40.084 39.38 38.428 39.836C36.796 40.316 35.056 40.556 33.208 40.556V39.224ZM54.808 11H62.764V23.852H65.896V25.868H62.764V41.24H54.808V11ZM46.42 36.848C46.42 35.744 46.756 34.856 47.428 34.184C48.124 33.488 49.024 33.14 50.128 33.14C51.232 33.14 52.12 33.488 52.792 34.184C53.488 34.856 53.836 35.744 53.836 36.848C53.836 37.952 53.488 38.84 52.792 39.512C52.12 40.208 51.232 40.556 50.128 40.556C49.024 40.556 48.124 40.208 47.428 39.512C46.756 38.84 46.42 37.952 46.42 36.848Z" fill="white"/>
<path d="M21.6675 27.0608C21.5596 27.0608 21.4511 27.0636 21.3424 27.069C20.1667 25.1614 18.1083 24 15.8341 24C13.5599 24 11.5014 25.1614 10.326 27.069C10.2173 27.0635 10.1087 27.0608 10.0008 27.0608C6.42966 27.0608 3.52441 29.9661 3.52441 33.5373C3.52441 36.525 5.57441 39.097 8.40659 39.8137V49.0157C8.40659 49.5039 8.80217 49.8995 9.29036 49.8995H22.3779C22.8661 49.8995 23.2617 49.5039 23.2617 49.0157V39.8142C26.0934 39.0973 28.1439 36.5245 28.1439 33.5373C28.1439 29.9661 25.2386 27.0608 21.6675 27.0608ZM21.4942 48.1319H10.1741V46.4661H12.6061H15.8343H19.0625H21.4944V48.1319H21.4942ZM22.2667 38.2067C21.8252 38.2627 21.4942 38.6383 21.4942 39.0833V44.9931H19.7987V39.4808C19.7987 39.074 19.469 38.7443 19.0623 38.7443C18.6555 38.7443 18.3258 39.074 18.3258 39.4808V44.9931H16.5705V39.4808C16.5705 39.074 16.2408 38.7443 15.834 38.7443C15.4273 38.7443 15.0976 39.074 15.0976 39.4808V44.9931H13.3426V39.4808C13.3426 39.074 13.0129 38.7443 12.6061 38.7443C12.1994 38.7443 11.8697 39.074 11.8697 39.4808V44.9931H10.1741V39.169C10.1751 39.159 10.1759 39.149 10.1766 39.139C10.2058 38.6733 9.86811 38.2651 9.40513 38.2067C7.06032 37.9109 5.29207 35.9034 5.29207 33.5373C5.29207 30.9408 7.40452 28.8283 10.0009 28.8283C10.2282 28.8283 10.4596 28.8453 10.6893 28.8791C11.0689 28.9347 11.4404 28.7396 11.61 28.3958C12.4099 26.7746 14.0288 25.7675 15.8341 25.7675C17.6394 25.7675 19.2582 26.7747 20.0588 28.3959C20.2284 28.7396 20.5993 28.9345 20.9796 28.8791C21.2086 28.8454 21.4401 28.8283 21.6675 28.8283C24.2639 28.8283 26.3763 30.9408 26.3763 33.5373C26.3763 35.902 24.6096 37.9094 22.2667 38.2067Z" fill="white"/>
</svg>
