<svg width="227" height="46" viewBox="0 0 227 46" fill="none" xmlns="http://www.w3.org/2000/svg">
<path d="M193.668 39.224C194.412 39.224 195.144 39.02 195.864 38.612C196.608 38.204 197.268 37.616 197.844 36.848C198.42 36.056 198.888 35.096 199.248 33.968C199.608 32.84 199.788 31.556 199.788 30.116V11H207.24V30.116C207.24 31.748 206.88 33.212 206.16 34.508C205.44 35.804 204.456 36.908 203.208 37.82C201.984 38.708 200.544 39.38 198.888 39.836C197.256 40.316 195.516 40.556 193.668 40.556V39.224ZM215.268 11H223.224V23.852H226.356V25.868H223.224V41.24H215.268V11ZM206.88 36.848C206.88 35.744 207.216 34.856 207.888 34.184C208.584 33.488 209.484 33.14 210.588 33.14C211.692 33.14 212.58 33.488 213.252 34.184C213.948 34.856 214.296 35.744 214.296 36.848C214.296 37.952 213.948 38.84 213.252 39.512C212.58 40.208 211.692 40.556 210.588 40.556C209.484 40.556 208.584 40.208 207.888 39.512C207.216 38.84 206.88 37.952 206.88 36.848Z" fill="#85FF7B"/>
<path d="M176.448 39.584C177.12 39.584 177.792 39.56 178.464 39.512C179.136 39.464 179.772 39.38 180.372 39.26C180.972 39.164 181.512 39.032 181.992 38.864C182.496 38.696 182.916 38.504 183.252 38.288V11H191.208V41.24H183.252V39.944C182.556 40.376 181.56 40.7 180.264 40.916C178.968 41.132 177.612 41.24 176.196 41.24H165.36C163.944 41.24 162.816 40.82 161.976 39.98C161.16 39.164 160.752 38.06 160.752 36.668C160.752 35.276 161.16 34.172 161.976 33.356C162.816 32.516 163.944 32.096 165.36 32.096H173.748V26.732H165.072C163.776 26.732 162.732 26.336 161.94 25.544C161.148 24.752 160.752 23.696 160.752 22.376C160.752 21.056 161.148 20.012 161.94 19.244C162.732 18.452 163.776 18.056 165.072 18.056H173.748V12.656H161.4V11H177.384C178.68 11 179.724 11.396 180.516 12.188C181.308 12.98 181.704 14.036 181.704 15.356C181.704 16.676 181.308 17.732 180.516 18.524C179.724 19.316 178.68 19.712 177.384 19.712H168.708V25.076H177.384C178.68 25.076 179.724 25.472 180.516 26.264C181.308 27.032 181.704 28.076 181.704 29.396C181.704 30.716 181.308 31.772 180.516 32.564C179.724 33.356 178.68 33.752 177.384 33.752H168.708V39.584H176.448Z" fill="#85FF7B"/>
<path d="M126.468 39.5479H131.436V30.0799C129.708 29.1439 128.46 27.9319 127.692 26.4439C126.948 24.9559 126.576 23.2639 126.576 21.3679C126.576 19.7599 126.852 18.2959 127.404 16.9759C127.956 15.6319 128.844 14.4919 130.068 13.5559C131.292 12.5959 132.876 11.8639 134.82 11.3599C136.788 10.8319 139.176 10.5679 141.984 10.5679C144.792 10.5679 147.168 10.8319 149.112 11.3599C151.08 11.8639 152.676 12.5959 153.9 13.5559C155.124 14.4919 156.012 15.6319 156.564 16.9759C157.116 18.2959 157.392 19.7599 157.392 21.3679C157.392 23.2639 157.008 24.9559 156.24 26.4439C155.496 27.9319 154.26 29.1439 152.532 30.0799V38.8639C152.532 39.3199 152.748 39.5479 153.18 39.5479H157.572V41.2039H126.468V39.5479ZM141.984 30.5119C143.232 30.5119 144.312 30.2959 145.224 29.8639C146.16 29.4319 146.94 28.8199 147.564 28.0279C148.188 27.2359 148.656 26.2759 148.968 25.1479C149.28 24.0199 149.436 22.7599 149.436 21.3679C149.436 19.9999 149.28 18.7519 148.968 17.6239C148.656 16.4959 148.188 15.5359 147.564 14.7439C146.94 13.9279 146.16 13.3039 145.224 12.8719C144.312 12.4399 143.232 12.2239 141.984 12.2239C140.736 12.2239 139.644 12.4399 138.708 12.8719C137.796 13.3039 137.028 13.9279 136.404 14.7439C135.78 15.5359 135.312 16.4959 135 17.6239C134.688 18.7519 134.532 19.9999 134.532 21.3679C134.532 22.7599 134.688 24.0199 135 25.1479C135.312 26.2759 135.78 27.2359 136.404 28.0279C137.028 28.8199 137.796 29.4319 138.708 29.8639C139.644 30.2959 140.736 30.5119 141.984 30.5119ZM144.576 39.5479V32.0959C144.168 32.1439 143.748 32.1679 143.316 32.1679C142.884 32.1679 142.44 32.1679 141.984 32.1679C141.528 32.1679 141.084 32.1679 140.652 32.1679C140.22 32.1679 139.8 32.1439 139.392 32.0959V39.5479H144.576Z" fill="#85FF7B"/>
<path d="M92.0762 28.8919C92.8202 28.8919 93.6002 28.6879 94.4162 28.2799C95.2322 27.8719 95.9762 27.2839 96.6482 26.5159C97.3442 25.7239 97.9082 24.7639 98.3402 23.6359C98.7962 22.5079 99.0242 21.2239 99.0242 19.7839V14.9599H92.5802V13.3039H99.0242V10.3159H106.944V13.3039H113.46V14.9599H106.476V19.7839C106.476 21.4159 106.068 22.8799 105.252 24.1759C104.46 25.4719 103.392 26.5759 102.048 27.4879C100.704 28.3759 99.1682 29.0599 97.4402 29.5399C95.7122 29.9959 93.9242 30.2239 92.0762 30.2239V28.8919ZM98.5562 34.0759H92.4362V32.4199H108.42C109.596 32.4199 110.808 32.3479 112.056 32.2039C113.304 32.0599 114.372 31.8079 115.26 31.4479V10.9639H123.216V41.2039H115.26V33.1039C114.324 33.4639 113.22 33.7159 111.948 33.8599C110.676 34.0039 109.428 34.0759 108.204 34.0759H106.836V41.2039H98.5562V34.0759ZM106.62 26.5159C106.62 25.4119 106.956 24.5239 107.628 23.8519C108.324 23.1559 109.224 22.8079 110.328 22.8079C111.432 22.8079 112.32 23.1559 112.992 23.8519C113.664 24.5239 114 25.4119 114 26.5159C114 27.6199 113.664 28.5199 112.992 29.2159C112.32 29.8879 111.432 30.2239 110.328 30.2239C109.224 30.2239 108.324 29.8879 107.628 29.2159C106.956 28.5199 106.62 27.6199 106.62 26.5159Z" fill="#85FF7B"/>
<path d="M57.6836 39.224C58.4276 39.224 59.1596 39.02 59.8796 38.612C60.6236 38.204 61.2836 37.616 61.8596 36.848C62.4356 36.056 62.9036 35.096 63.2636 33.968C63.6236 32.84 63.8036 31.556 63.8036 30.116V12.656H57.8636V11H77.5196V12.656H71.2556V30.116C71.2556 31.748 70.8956 33.212 70.1756 34.508C69.4556 35.804 68.4716 36.908 67.2236 37.82C65.9996 38.708 64.5596 39.38 62.9036 39.836C61.2716 40.316 59.5316 40.556 57.6836 40.556V39.224ZM79.2836 11H87.2396V23.852H90.3716V25.868H87.2396V41.24H79.2836V11ZM70.8956 36.848C70.8956 35.744 71.2316 34.856 71.9036 34.184C72.5996 33.488 73.4996 33.14 74.6036 33.14C75.7076 33.14 76.5956 33.488 77.2676 34.184C77.9636 34.856 78.3116 35.744 78.3116 36.848C78.3116 37.952 77.9636 38.84 77.2676 39.512C76.5956 40.208 75.7076 40.556 74.6036 40.556C73.4996 40.556 72.5996 40.208 71.9036 39.512C71.2316 38.84 70.8956 37.952 70.8956 36.848Z" fill="#85FF7B"/>
<path d="M32.2238 5.43625C32.0321 5.43625 31.8396 5.44127 31.6464 5.4509C29.5584 2.06274 25.9023 0 21.8633 0C17.824 0 14.168 2.06274 12.0803 5.4509C11.8871 5.44107 11.6944 5.43625 11.5027 5.43625C5.15999 5.43625 0 10.5965 0 16.9391C0 22.2456 3.64098 26.8137 8.67121 28.0866V44.4303C8.67121 45.2974 9.37379 46 10.2409 46H33.4856C34.3527 46 35.0553 45.2974 35.0553 44.4303V28.0875C40.0847 26.8142 43.7265 22.2448 43.7265 16.9391C43.7265 10.5965 38.5665 5.43625 32.2238 5.43625ZM31.916 42.8605H11.8105V39.902H16.13H21.8635H27.5971H31.9164V42.8605H31.916ZM33.2881 25.2324C32.5039 25.332 31.916 25.999 31.916 26.7895V37.2857H28.9047V27.4954C28.9047 26.7729 28.3192 26.1873 27.5967 26.1873C26.8742 26.1873 26.2886 26.7729 26.2886 27.4954V37.2857H23.1711V27.4954C23.1711 26.7729 22.5855 26.1873 21.863 26.1873C21.1406 26.1873 20.555 26.7729 20.555 27.4954V37.2857H17.4381V27.4954C17.4381 26.7729 16.8525 26.1873 16.13 26.1873C15.4076 26.1873 14.822 26.7729 14.822 27.4954V37.2857H11.8105V26.9416C11.8122 26.9238 11.8137 26.906 11.8149 26.8883C11.8668 26.0612 11.267 25.3362 10.4447 25.2324C6.2801 24.7071 3.13953 21.1416 3.13953 16.9391C3.13953 12.3275 6.89143 8.57557 11.5029 8.57557C11.9066 8.57557 12.3176 8.60571 12.7255 8.66577C13.3997 8.76456 14.0595 8.41798 14.3607 7.80727C15.7816 4.92789 18.6568 3.13932 21.8633 3.13932C25.0695 3.13932 27.9447 4.9281 29.3666 7.80748C29.6678 8.41798 30.3266 8.76414 31.002 8.66577C31.4089 8.60592 31.8199 8.57557 32.2238 8.57557C36.8353 8.57557 40.5872 12.3275 40.5872 16.9391C40.5872 21.1391 37.4493 24.7043 33.2881 25.2324Z" fill="#85FF7B"/>
</svg>
