<svg xmlns="http://www.w3.org/2000/svg" xmlns:xlink="http://www.w3.org/1999/xlink" width="500" zoomAndPan="magnify" viewBox="0 0 375 374.999991" height="500" preserveAspectRatio="xMidYMid meet" version="1.0"><defs><g/></defs><rect x="-37.5" width="450" fill="#ffffff" y="-37.499999" height="449.999989" fill-opacity="1"/><rect x="-37.5" width="450" fill="#ffffff" y="-37.499999" height="449.999989" fill-opacity="1"/><g fill="#aa8453" fill-opacity="1"><g transform="translate(145.126507, 226.928996)"><g><path d="M 6.734375 -11.78125 C 7.566406 -11.78125 8.375 -11.617188 9.15625 -11.296875 C 9.945312 -10.984375 10.628906 -10.539062 11.203125 -9.96875 L 10.046875 -8.53125 C 9.617188 -8.988281 9.113281 -9.351562 8.53125 -9.625 C 7.945312 -9.894531 7.359375 -10.03125 6.765625 -10.03125 C 5.597656 -10.03125 4.609375 -9.628906 3.796875 -8.828125 C 2.984375 -8.023438 2.578125 -7.050781 2.578125 -5.90625 C 2.578125 -4.738281 2.984375 -3.753906 3.796875 -2.953125 C 4.609375 -2.160156 5.597656 -1.765625 6.765625 -1.765625 C 7.984375 -1.765625 9.078125 -2.226562 10.046875 -3.15625 L 11.21875 -1.84375 C 10.613281 -1.25 9.90625 -0.78125 9.09375 -0.4375 C 8.289062 -0.09375 7.484375 0.078125 6.671875 0.078125 C 4.953125 0.078125 3.503906 -0.492188 2.328125 -1.640625 C 1.148438 -2.785156 0.5625 -4.203125 0.5625 -5.890625 C 0.5625 -7.546875 1.15625 -8.941406 2.34375 -10.078125 C 3.539062 -11.210938 5.003906 -11.78125 6.734375 -11.78125 Z M 6.734375 -11.78125 "/></g></g></g><g fill="#aa8453" fill-opacity="1"><g transform="translate(163.525644, 226.928996)"><g><path d="M 4.6875 -10.203125 L 2.984375 -10.203125 L 0.9375 -11.859375 L 2.921875 -12.6875 Z M 4.6875 -10.203125 "/></g></g></g><g fill="#aa8453" fill-opacity="1"><g transform="translate(176.105091, 226.928996)"><g><path d="M 9.125 -2.65625 L 3.203125 -2.65625 L 2.078125 0 L 0.015625 0 L 5.203125 -11.734375 L 7.21875 -11.734375 L 12.359375 0 L 10.25 0 Z M 8.359375 -4.40625 L 6.15625 -9.625 L 3.9375 -4.40625 Z M 8.359375 -4.40625 "/></g></g></g><g fill="#aa8453" fill-opacity="1"><g transform="translate(195.191849, 226.928996)"><g><path d="M 8.984375 0 L 6.84375 -3.546875 C 6.726562 -3.535156 6.546875 -3.53125 6.296875 -3.53125 L 3.515625 -3.53125 L 3.515625 0 L 1.546875 0 L 1.546875 -11.734375 L 6.296875 -11.734375 C 7.796875 -11.734375 8.957031 -11.382812 9.78125 -10.6875 C 10.613281 -9.988281 11.03125 -9.003906 11.03125 -7.734375 C 11.03125 -6.796875 10.820312 -6 10.40625 -5.34375 C 9.988281 -4.695312 9.382812 -4.222656 8.59375 -3.921875 L 11.234375 0 Z M 3.515625 -5.3125 L 6.296875 -5.3125 C 8.203125 -5.3125 9.15625 -6.097656 9.15625 -7.671875 C 9.15625 -9.191406 8.203125 -9.953125 6.296875 -9.953125 L 3.515625 -9.953125 Z M 3.515625 -5.3125 "/></g></g></g><g fill="#aa8453" fill-opacity="1"><g transform="translate(214.027045, 226.928996)"><g><path d="M 9.5625 -9.953125 L 5.828125 -9.953125 L 5.828125 0 L 3.859375 0 L 3.859375 -9.953125 L 0.15625 -9.953125 L 0.15625 -11.734375 L 9.5625 -11.734375 Z M 9.5625 -9.953125 "/></g></g></g><g fill="#aa8453" fill-opacity="1"><g transform="translate(230.447147, 226.928996)"><g><path d="M 9.921875 -9.953125 L 3.515625 -9.953125 L 3.515625 -6.796875 L 9.25 -6.796875 L 9.25 -5.015625 L 3.515625 -5.015625 L 3.515625 -1.78125 L 10.125 -1.78125 L 10.125 0 L 1.546875 0 L 1.546875 -11.734375 L 9.921875 -11.734375 Z M 9.921875 -9.953125 "/></g></g></g><g fill="#aa8453" fill-opacity="1"><g transform="translate(136.541149, 137.589087)"><g><path d="M 55.765625 -0.96875 C 55.984375 -0.96875 56.09375 -0.804688 56.09375 -0.484375 C 56.09375 -0.160156 55.984375 0 55.765625 0 C 54.804688 0 53.253906 -0.0507812 51.109375 -0.15625 C 49.078125 -0.269531 47.578125 -0.328125 46.609375 -0.328125 C 45.484375 -0.328125 44.007812 -0.269531 42.1875 -0.15625 C 40.476562 -0.0507812 39.191406 0 38.328125 0 C 38.117188 0 38.015625 -0.160156 38.015625 -0.484375 C 38.015625 -0.804688 38.117188 -0.96875 38.328125 -0.96875 C 40.523438 -0.96875 42.101562 -1.164062 43.0625 -1.5625 C 44.03125 -1.96875 44.515625 -2.648438 44.515625 -3.609375 C 44.515625 -4.359375 44.222656 -5.40625 43.640625 -6.75 L 36.078125 -23.0625 L 16.953125 -23.0625 L 11.484375 -9.890625 C 10.734375 -8.066406 10.359375 -6.566406 10.359375 -5.390625 C 10.359375 -3.828125 11 -2.695312 12.28125 -2 C 13.570312 -1.3125 15.585938 -0.96875 18.328125 -0.96875 C 18.585938 -0.96875 18.71875 -0.804688 18.71875 -0.484375 C 18.71875 -0.160156 18.585938 0 18.328125 0 C 17.359375 0 15.960938 -0.0507812 14.140625 -0.15625 C 12.109375 -0.269531 10.34375 -0.328125 8.84375 -0.328125 C 7.5 -0.328125 5.914062 -0.269531 4.09375 -0.15625 C 2.488281 -0.0507812 1.175781 0 0.15625 0 C -0.101562 0 -0.234375 -0.160156 -0.234375 -0.484375 C -0.234375 -0.804688 -0.101562 -0.96875 0.15625 -0.96875 C 1.65625 -0.96875 2.925781 -1.234375 3.96875 -1.765625 C 5.019531 -2.304688 6.015625 -3.269531 6.953125 -4.65625 C 7.890625 -6.050781 8.894531 -8.035156 9.96875 -10.609375 L 26.765625 -51.03125 C 26.867188 -51.1875 27.039062 -51.265625 27.28125 -51.265625 C 27.519531 -51.265625 27.664062 -51.1875 27.71875 -51.03125 L 46.375 -11.015625 C 47.601562 -8.273438 48.695312 -6.195312 49.65625 -4.78125 C 50.625 -3.363281 51.578125 -2.375 52.515625 -1.8125 C 53.453125 -1.25 54.535156 -0.96875 55.765625 -0.96875 Z M 17.59375 -24.515625 L 35.359375 -24.515625 L 25.953125 -44.6875 Z M 17.59375 -24.515625 "/></g></g></g><g fill="#aa8453" fill-opacity="1"><g transform="translate(197.798353, 188.567517)"><g><path d="M 32.703125 -51.109375 C 36.242188 -51.109375 39.140625 -50.851562 41.390625 -50.34375 C 43.640625 -49.832031 46.019531 -48.9375 48.53125 -47.65625 C 48.851562 -47.4375 49.054688 -47.257812 49.140625 -47.125 C 49.222656 -47 49.289062 -46.585938 49.34375 -45.890625 L 50.3125 -36.71875 C 50.3125 -36.5625 50.160156 -36.46875 49.859375 -36.4375 C 49.566406 -36.414062 49.394531 -36.484375 49.34375 -36.640625 C 48.164062 -41.085938 46.207031 -44.421875 43.46875 -46.640625 C 40.738281 -48.867188 37.148438 -49.984375 32.703125 -49.984375 C 27.992188 -49.984375 23.859375 -48.988281 20.296875 -47 C 16.734375 -45.019531 13.972656 -42.195312 12.015625 -38.53125 C 10.054688 -34.863281 9.078125 -30.59375 9.078125 -25.71875 C 9.078125 -21.164062 10.160156 -16.921875 12.328125 -12.984375 C 14.503906 -9.046875 17.425781 -5.910156 21.09375 -3.578125 C 24.757812 -1.242188 28.679688 -0.078125 32.859375 -0.078125 C 41.753906 -0.078125 47.4375 -4.441406 49.90625 -13.171875 C 49.90625 -13.285156 50.039062 -13.34375 50.3125 -13.34375 C 50.6875 -13.34375 50.875 -13.257812 50.875 -13.09375 L 50.21875 -4.578125 C 50.164062 -3.929688 50.085938 -3.53125 49.984375 -3.375 C 49.878906 -3.21875 49.664062 -3.03125 49.34375 -2.8125 C 46.550781 -1.363281 43.9375 -0.359375 41.5 0.203125 C 39.0625 0.765625 36.15625 1.046875 32.78125 1.046875 C 27.207031 1.046875 22.238281 -0.0625 17.875 -2.28125 C 13.507812 -4.507812 10.09375 -7.644531 7.625 -11.6875 C 5.164062 -15.738281 3.9375 -20.390625 3.9375 -25.640625 C 3.9375 -30.671875 5.164062 -35.113281 7.625 -38.96875 C 10.09375 -42.832031 13.507812 -45.820312 17.875 -47.9375 C 22.238281 -50.050781 27.179688 -51.109375 32.703125 -51.109375 Z M 32.703125 -51.109375 "/></g></g></g><path stroke-linecap="butt" transform="matrix(0.431053, -0.613753, 0.613753, 0.431053, 168.724827, 186.483211)" fill="none" stroke-linejoin="miter" d="M 0.00118813 1.001224 L 116.885252 1.000526 " stroke="#aa8453" stroke-width="2" stroke-opacity="1" stroke-miterlimit="4"/></svg>