<svg width="200" height="200" viewBox="0 0 200 200" fill="none" xmlns="http://www.w3.org/2000/svg">
<g clip-path="url(#clip0_1_297)">
<path d="M43.0685 183.155C44.2595 183.155 45.4169 183.39 46.5351 183.848C47.6646 184.296 48.6431 184.933 49.465 185.749L47.8099 187.807C47.1949 187.153 46.4736 186.633 45.6405 186.241C44.8018 185.856 43.9631 185.66 43.1132 185.66C41.4414 185.66 40.0268 186.236 38.8638 187.382C37.7008 188.534 37.1193 189.926 37.1193 191.564C37.1193 193.236 37.7008 194.645 38.8638 195.791C40.0268 196.926 41.4414 197.491 43.1132 197.491C44.8577 197.491 46.4233 196.831 47.8099 195.501L49.4873 197.379C48.6207 198.229 47.6087 198.9 46.4457 199.392C45.2938 199.884 44.142 200.13 42.979 200.13C40.5188 200.13 38.4445 199.314 36.7615 197.67C35.0729 196.032 34.2342 194.002 34.2342 191.587C34.2342 189.216 35.0841 187.22 36.7838 185.593C38.4948 183.971 40.5915 183.155 43.0685 183.155Z" fill="#AA8453"/>
<path d="M63.3212 189.126H61.1965V183.222H63.3212V189.126Z" fill="#AA8453"/>
<path d="M87.4236 196.216H78.9472L77.3369 200.018H74.3846L81.8099 183.222H84.6951L92.0533 200.018H89.0339L87.4236 196.216ZM86.3277 193.711L83.1742 186.241L79.9983 193.711H86.3277Z" fill="#AA8453"/>
<path d="M114.543 200.018L111.479 194.941C111.311 194.958 111.054 194.964 110.696 194.964H106.715V200.018H103.897V183.222H110.696C112.843 183.222 114.504 183.725 115.683 184.721C116.874 185.721 117.473 187.13 117.473 188.948C117.473 190.289 117.171 191.43 116.578 192.369C115.98 193.298 115.113 193.974 113.984 194.405L117.763 200.018H114.543ZM106.715 192.414H110.696C113.424 192.414 114.789 191.29 114.789 189.037C114.789 186.862 113.424 185.772 110.696 185.772H106.715V192.414Z" fill="#AA8453"/>
<path d="M142.331 185.772H136.985V200.018H134.167V185.772H128.867V183.222H142.331V185.772Z" fill="#AA8453"/>
<path d="M166.348 185.772H157.179V190.289H165.387V192.839H157.179V197.469H166.639V200.018H154.361V183.222H166.348V185.772Z" fill="#AA8453"/>
<path d="M124.973 71.994C125.286 71.994 125.442 72.2288 125.442 72.6873C125.442 73.1514 125.286 73.3807 124.973 73.3807C123.597 73.3807 121.377 73.308 118.308 73.157C115.4 72.9949 113.253 72.911 111.866 72.911C110.256 72.911 108.143 72.9949 105.537 73.157C103.088 73.308 101.249 73.3807 100.013 73.3807C99.7109 73.3807 99.5655 73.1514 99.5655 72.6873C99.5655 72.2288 99.7109 71.994 100.013 71.994C103.155 71.994 105.414 71.7144 106.79 71.1441C108.176 70.5626 108.869 69.5897 108.869 68.2143C108.869 67.1407 108.45 65.6422 107.617 63.7188L96.7922 40.3694H69.417L61.5892 59.2234C60.5156 61.8346 59.9789 63.9816 59.9789 65.6646C59.9789 67.9011 60.8959 69.5226 62.7298 70.5179C64.575 71.502 67.4601 71.994 71.3852 71.994C71.7542 71.994 71.9443 72.2288 71.9443 72.6873C71.9443 73.1514 71.7542 73.3807 71.3852 73.3807C69.9985 73.3807 67.9969 73.308 65.3913 73.157C62.4838 72.9949 59.9565 72.911 57.8094 72.911C55.886 72.911 53.6159 72.9949 51.0104 73.157C48.7123 73.308 46.8337 73.3807 45.3743 73.3807C45.0053 73.3807 44.8152 73.1514 44.8152 72.6873C44.8152 72.2288 45.0053 71.994 45.3743 71.994C47.5214 71.994 49.3386 71.6138 50.8315 70.8534C52.3355 70.0818 53.7613 68.7007 55.1032 66.7158C56.4452 64.7197 57.8821 61.8793 59.4197 58.1946L83.4625 0.33548C83.6079 0.111827 83.8539 0 84.2005 0C84.5416 0 84.7485 0.111827 84.8268 0.33548L111.531 57.6131C113.287 61.5382 114.852 64.5128 116.228 66.5369C117.614 68.5665 118.979 69.9811 120.321 70.7863C121.662 71.5914 123.211 71.994 124.973 71.994ZM70.334 38.2894H95.7634L82.2995 9.4158L70.334 38.2894Z" fill="#AA8453"/>
<path d="M135.349 56.3919C140.414 56.3919 144.563 56.7609 147.784 57.4878C151.004 58.2202 154.41 59.5007 158.005 61.3346C158.463 61.6477 158.754 61.9049 158.877 62.095C158.994 62.274 159.09 62.8666 159.168 63.8619L160.554 76.9903C160.554 77.214 160.336 77.3482 159.906 77.3929C159.486 77.4265 159.24 77.3258 159.168 77.1022C157.479 70.7392 154.678 65.9642 150.758 62.7884C146.85 59.6013 141.712 58.0022 135.349 58.0022C128.606 58.0022 122.69 59.428 117.591 62.274C112.491 65.1088 108.538 69.1513 105.737 74.396C102.93 79.6462 101.532 85.7576 101.532 92.7355C101.532 99.255 103.081 105.327 106.184 110.963C109.299 116.599 113.481 121.089 118.731 124.427C123.976 127.771 129.59 129.437 135.572 129.437C148.304 129.437 156.439 123.192 159.973 110.695C159.973 110.533 160.163 110.449 160.554 110.449C161.091 110.449 161.36 110.572 161.36 110.807L160.42 122.996C160.342 123.924 160.23 124.494 160.085 124.718C159.934 124.942 159.626 125.21 159.168 125.523C155.17 127.597 151.429 129.034 147.94 129.84C144.451 130.645 140.291 131.047 135.461 131.047C127.482 131.047 120.37 129.459 114.124 126.284C107.873 123.096 102.986 118.607 99.4524 112.82C95.9298 107.021 94.1741 100.362 94.1741 92.8474C94.1741 85.6457 95.9298 79.2884 99.4524 73.7697C102.986 68.2399 107.873 63.9625 114.124 60.932C120.37 57.9071 127.443 56.3919 135.349 56.3919Z" fill="#AA8453"/>
<mask id="mask0_1_297" style="mask-type:luminance" maskUnits="userSpaceOnUse" x="71" y="36" width="58" height="78">
<path d="M71.3256 36.2669H128.581V113.561H71.3256V36.2669Z" fill="white"/>
</mask>
<g mask="url(#mask0_1_297)">
<mask id="mask1_1_297" style="mask-type:luminance" maskUnits="userSpaceOnUse" x="71" y="37" width="58" height="76">
<path d="M111.052 37.1335L128.335 47.5613L89.2569 112.315L71.9741 101.881L111.052 37.1335Z" fill="white"/>
</mask>
<g mask="url(#mask1_1_297)">
<mask id="mask2_1_297" style="mask-type:luminance" maskUnits="userSpaceOnUse" x="71" y="37" width="58" height="76">
<path d="M111.052 37.1335L128.335 47.5613L89.2737 112.287L71.9909 101.853L111.052 37.1335Z" fill="white"/>
</mask>
<g mask="url(#mask2_1_297)">
<path d="M111.052 37.1335L128.335 47.5613L89.2569 112.315L71.9741 101.881L111.052 37.1335Z" fill="white"/>
</g>
</g>
</g>
<mask id="mask3_1_297" style="mask-type:luminance" maskUnits="userSpaceOnUse" x="72" y="46" width="41" height="41">
<path d="M72.7569 46.2866H112.836V86.3652H72.7569V46.2866Z" fill="white"/>
</mask>
<g mask="url(#mask3_1_297)">
<mask id="mask4_1_297" style="mask-type:luminance" maskUnits="userSpaceOnUse" x="73" y="47" width="39" height="39">
<path d="M88.2729 47.4384L111.829 61.6571L97.3364 85.6663L73.7802 71.4532L88.2729 47.4384Z" fill="white"/>
</mask>
<g mask="url(#mask4_1_297)">
<mask id="mask5_1_297" style="mask-type:luminance" maskUnits="userSpaceOnUse" x="73" y="47" width="39" height="39">
<path d="M88.273 47.4384L111.829 61.6571L97.3421 85.6495L73.7914 71.4364L88.273 47.4384Z" fill="white"/>
</mask>
<g mask="url(#mask5_1_297)">
<path d="M88.2729 47.4384L111.829 61.6571L97.3364 85.6663L73.7802 71.4532L88.2729 47.4384Z" fill="white"/>
</g>
</g>
</g>
<mask id="mask6_1_297" style="mask-type:luminance" maskUnits="userSpaceOnUse" x="99" y="49" width="40" height="38">
<path d="M99.9531 49.1493H138.6V86.3652H99.9531V49.1493Z" fill="white"/>
</mask>
<g mask="url(#mask6_1_297)">
<mask id="mask7_1_297" style="mask-type:luminance" maskUnits="userSpaceOnUse" x="101" y="49" width="37" height="37">
<path d="M114.278 49.9992L137.89 64.2515L124.952 85.6887L101.34 71.4363L114.278 49.9992Z" fill="white"/>
</mask>
<g mask="url(#mask7_1_297)">
<mask id="mask8_1_297" style="mask-type:luminance" maskUnits="userSpaceOnUse" x="101" y="49" width="37" height="37">
<path d="M114.278 49.9992L137.829 64.2179L124.891 85.6495L101.34 71.4363L114.278 49.9992Z" fill="white"/>
</mask>
<g mask="url(#mask8_1_297)">
<path d="M114.278 49.9992L137.807 64.2012L124.868 85.6383L101.34 71.4363L114.278 49.9992Z" fill="white"/>
</g>
</g>
</g>
<path d="M65.7119 121.473L137.829 18.7884" stroke="#AA8453" stroke-width="2"/>
</g>
<defs>
<clipPath id="clip0_1_297">
<rect width="200" height="200" fill="white"/>
</clipPath>
</defs>
</svg>
